<?xml version="1.0" standalone="no"?>
<!DOCTYPE svg PUBLIC "-//W3C//DTD SVG 20010904//EN"
 "http://www.w3.org/TR/2001/REC-SVG-20010904/DTD/svg10.dtd">
<svg version="1.0" xmlns="http://www.w3.org/2000/svg"
 width="300.000000pt" height="300.000000pt" viewBox="0 0 300.000000 300.000000"
 preserveAspectRatio="xMidYMid meet">
<metadata>
Created by potrace 1.14, written by Peter Selinger 2001-2017
</metadata>
<g transform="translate(0.000000,300.000000) scale(0.100000,-0.100000)"
fill="#000000" stroke="none">
<path d="M291 2090 c-8 -4 -21 -6 -29 -2 -9 3 -13 1 -9 -5 4 -6 3 -13 -3 -15
-5 -1 -11 -15 -12 -30 -1 -16 -6 -28 -10 -28 -4 0 -5 -9 -3 -20 2 -11 -1 -20
-7 -20 -5 0 -8 -7 -4 -15 3 -8 1 -15 -4 -15 -5 0 -6 -7 -3 -17 4 -10 2 -14 -4
-10 -6 4 -8 -3 -6 -17 3 -13 0 -27 -6 -30 -5 -4 -8 -13 -5 -20 3 -8 1 -17 -5
-20 -6 -4 -7 -14 -4 -23 5 -12 3 -14 -7 -8 -9 5 -11 4 -6 -4 4 -6 2 -18 -4
-26 -10 -12 -10 -15 0 -15 9 0 10 -3 1 -13 -6 -8 -8 -17 -4 -20 3 -4 1 -7 -6
-7 -7 0 -11 -6 -8 -14 3 -7 0 -19 -6 -25 -8 -8 -7 -11 3 -11 13 0 13 -2 1 -9
-14 -9 -20 -24 -24 -68 -1 -13 -6 -23 -10 -23 -5 0 -5 -4 -2 -10 3 -5 0 -10
-7 -10 -11 0 -11 -2 0 -9 11 -7 11 -11 -2 -24 -19 -19 -21 -31 -4 -20 8 4 7
-3 -3 -17 -9 -14 -15 -33 -13 -42 1 -10 -2 -18 -7 -18 -6 0 -9 -6 -8 -12 3
-29 -2 -49 -11 -43 -6 3 -7 -1 -4 -10 4 -8 0 -23 -7 -32 -9 -11 -9 -14 -2 -10
9 5 8 0 -2 -19 -7 -15 -11 -32 -9 -39 3 -7 0 -16 -5 -20 -6 -3 -9 -11 -6 -16
4 -5 1 -9 -4 -9 -6 0 -11 -8 -11 -17 0 -15 2 -16 10 -3 9 13 14 8 11 -12 -1
-7 47 0 62 9 6 3 7 1 4 -4 -5 -7 9 -10 41 -7 33 3 43 1 32 -6 -9 -6 -10 -10
-3 -10 7 0 17 8 22 18 6 9 11 13 11 7 0 -11 80 -14 80 -2 0 4 4 7 10 7 5 0 6
-8 3 -17 -6 -16 -5 -16 10 -5 9 8 20 12 24 9 4 -2 17 -1 28 3 13 5 26 2 38 -9
17 -15 20 -14 33 4 8 10 14 14 14 9 0 -11 63 -9 82 2 7 4 8 3 4 -4 -4 -7 -2
-12 3 -12 6 0 11 4 11 9 0 5 11 8 25 5 14 -2 25 0 25 5 0 5 9 7 20 4 12 -3 20
0 20 6 0 7 4 10 8 7 5 -3 21 2 36 9 16 8 32 13 36 10 4 -3 11 2 14 11 4 9 9
14 12 11 7 -7 35 15 88 68 22 22 44 39 49 37 4 -1 5 3 1 9 -3 6 0 15 7 20 8 4
14 14 14 21 1 7 6 12 12 11 6 -1 9 6 5 19 -3 14 -1 19 6 14 8 -5 12 0 12 13 0
12 5 21 11 21 5 0 8 4 4 9 -3 5 -1 12 4 16 6 3 7 13 4 22 -4 11 -3 14 5 9 12
-7 13 -4 16 34 0 12 7 25 15 29 9 6 10 11 2 15 -6 4 -9 12 -5 17 3 5 9 7 13 5
4 -3 8 1 8 9 0 8 -4 12 -9 9 -4 -3 -8 0 -8 5 0 6 8 11 18 12 10 0 12 3 5 6 -9
3 -10 10 -3 22 5 10 6 21 3 25 -3 3 2 16 13 28 19 22 19 22 0 8 -18 -14 -19
-13 -11 5 18 41 -7 234 -26 203 -6 -9 -9 -4 -9 15 0 17 -7 30 -17 34 -10 4
-27 15 -37 25 -11 10 -27 18 -35 18 -14 0 -14 2 -1 11 13 9 12 10 -3 5 -10 -3
-33 0 -51 8 -20 8 -39 10 -47 5 -8 -5 -20 -2 -31 8 -13 12 -18 12 -18 3 0 -9
-4 -10 -13 -2 -8 7 -18 7 -27 2 -9 -5 -19 -5 -26 1 -8 7 -14 6 -19 -1 -5 -8
-10 -8 -20 0 -9 8 -15 8 -20 0 -3 -5 -11 -10 -16 -10 -6 0 -8 4 -5 9 6 9 -51
7 -61 -3 -3 -3 -12 -1 -19 5 -8 7 -14 7 -19 -1 -5 -8 -11 -7 -23 2 -13 11 -14
11 -7 -2 8 -13 7 -13 -8 -1 -11 9 -17 10 -17 2 0 -6 -5 -11 -11 -11 -5 0 -7 6
-3 13 5 9 4 9 -6 0 -9 -9 -17 -9 -26 -2 -8 7 -14 7 -19 -1 -5 -8 -11 -8 -21 1
-11 9 -14 9 -14 -1 0 -9 -4 -9 -13 -2 -7 6 -18 7 -26 2z m230 -279 c0 8 3 9 5
3 2 -6 20 -9 40 -8 24 2 33 0 29 -9 -4 -7 0 -4 8 6 10 12 17 15 22 7 5 -8 11
-8 21 1 11 9 15 8 20 -5 4 -10 13 -15 21 -11 11 3 13 1 9 -10 -3 -8 0 -14 7
-12 7 1 11 -4 9 -12 -1 -7 2 -19 8 -25 5 -7 6 -16 2 -20 -10 -11 -9 -30 3 -38
6 -5 5 -8 -3 -8 -7 0 -10 -4 -7 -10 3 -5 1 -10 -5 -10 -7 0 -10 -6 -7 -14 3
-7 -2 -24 -10 -37 -12 -16 -12 -20 -3 -14 8 5 4 -5 -8 -22 -12 -17 -19 -33
-15 -37 3 -3 1 -6 -5 -6 -6 0 -13 -9 -17 -20 -3 -11 -12 -19 -18 -17 -7 1 -11
-4 -10 -10 3 -14 -6 -16 -47 -14 -20 2 -22 0 -10 -8 20 -14 4 -14 -22 0 -11 6
-18 7 -15 2 3 -4 -32 -8 -77 -8 -78 0 -82 1 -82 23 0 12 3 22 6 22 6 0 10 17
11 53 0 9 4 15 9 12 6 -3 7 1 4 10 -4 8 -1 21 5 29 6 7 8 16 4 19 -3 4 0 13 6
21 7 8 10 20 7 25 -4 5 -2 12 3 16 6 3 8 12 4 20 -3 8 0 15 7 15 6 0 9 4 5 9
-3 5 0 13 6 17 8 4 7 9 -2 15 -11 7 -11 9 -1 9 7 0 10 5 7 10 -3 6 -1 10 4 10
6 0 11 5 11 11 0 5 -5 7 -12 3 -6 -4 -8 -3 -4 4 3 6 15 9 26 7 11 -2 20 1 20
7 0 7 6 6 15 -2 12 -10 15 -10 16 1z"/>
<path d="M1184 2079 c-9 -10 -13 -23 -9 -28 3 -6 1 -11 -4 -11 -6 0 -11 -5
-11 -11 0 -5 6 -7 13 -4 6 4 5 1 -4 -7 -9 -7 -15 -23 -14 -35 1 -13 -2 -23 -7
-23 -5 0 -6 -4 -3 -10 3 -5 0 -10 -7 -10 -9 0 -9 -3 2 -10 12 -8 12 -10 1 -10
-8 0 -11 -3 -8 -6 3 -4 1 -16 -5 -28 -7 -11 -11 -32 -9 -45 2 -15 -1 -21 -8
-17 -6 4 -11 2 -11 -3 0 -6 5 -11 11 -11 6 0 3 -7 -5 -16 -18 -17 -21 -28 -7
-19 5 3 3 -8 -6 -25 -8 -17 -12 -38 -9 -46 3 -8 -1 -17 -10 -21 -13 -5 -13 -7
-2 -14 7 -5 8 -9 2 -9 -6 0 -11 -6 -12 -12 -2 -29 -14 -73 -22 -83 -6 -7 -5
-16 2 -23 9 -9 8 -12 -5 -12 -9 0 -17 -5 -17 -11 0 -5 6 -7 13 -3 6 4 5 -1 -4
-12 -8 -10 -15 -33 -15 -51 1 -17 -2 -29 -6 -26 -9 5 -10 1 -12 -37 0 -14 -5
-28 -9 -31 -4 -3 -9 -22 -10 -41 -1 -20 -6 -34 -11 -30 -5 3 -7 -2 -3 -11 3
-10 2 -17 -3 -17 -5 0 -7 -9 -5 -20 2 -11 1 -20 -3 -20 -4 0 -9 -12 -10 -27
-1 -15 -7 -30 -13 -34 -8 -5 -8 -8 0 -13 8 -5 7 -12 -3 -22 -9 -8 -13 -21 -10
-29 4 -8 1 -15 -6 -15 -10 0 -10 -3 0 -15 10 -12 9 -16 -3 -21 -10 -4 -14 -14
-11 -31 3 -14 1 -22 -5 -19 -5 4 -10 -2 -9 -11 0 -10 -3 -28 -5 -40 -9 -36 9
-36 44 -1 18 18 29 26 24 18 -8 -16 -3 -11 58 45 15 14 27 23 27 19 0 -4 8 1
19 12 33 34 59 53 65 47 3 -4 6 1 6 11 0 9 5 14 10 11 6 -3 10 -1 10 5 0 6 4
9 9 5 5 -3 12 4 16 15 4 11 11 18 16 15 5 -4 9 -1 9 5 0 6 10 15 23 20 12 5
17 9 10 9 -8 1 -7 10 3 31 9 16 13 34 9 40 -3 5 -2 10 4 10 6 0 7 7 4 17 -4
10 -2 14 5 9 7 -4 10 1 7 14 -2 11 0 22 5 25 5 3 7 14 5 25 -2 11 0 20 5 20 4
0 11 7 14 16 4 10 2 13 -7 7 -6 -4 -4 6 7 21 10 16 13 25 7 22 -6 -4 -11 -2
-11 3 0 6 5 11 11 11 6 0 9 7 5 15 -3 8 -1 15 4 15 5 0 7 9 5 20 -2 11 1 20 6
20 6 0 8 4 4 9 -3 5 -1 12 5 16 6 4 8 11 5 16 -4 5 1 9 9 9 16 0 19 -7 19 -42
0 -10 3 -15 7 -13 10 6 22 -24 15 -35 -3 -5 5 -16 17 -24 12 -9 17 -16 10 -16
-10 0 -9 -5 3 -16 9 -10 14 -25 12 -35 -3 -10 0 -17 7 -16 6 1 11 -5 11 -13 0
-8 4 -18 8 -21 5 -3 9 -12 10 -20 2 -8 7 -21 12 -29 10 -15 11 -20 14 -41 0
-5 5 -7 11 -4 6 3 7 -1 4 -9 -3 -9 -1 -16 5 -16 6 0 8 -7 5 -15 -4 -8 -1 -15
6 -15 6 0 8 -5 4 -12 -5 -8 0 -9 14 -6 12 4 20 2 16 -3 -3 -5 -1 -9 5 -9 5 0
13 5 16 10 4 6 12 7 18 3 17 -10 47 -11 47 -1 0 4 5 8 11 8 5 0 8 -4 4 -9 -7
-13 48 -9 57 4 5 6 8 5 8 -4 0 -10 3 -11 14 -2 10 8 16 9 21 1 3 -5 11 -10 16
-10 6 0 7 5 3 11 -4 8 0 8 15 0 12 -7 21 -8 20 -4 -4 24 2 43 12 37 8 -4 8 0
0 15 -8 15 -9 21 -1 21 6 0 9 4 5 9 -3 5 -1 12 4 16 5 3 10 13 10 23 1 38 5
52 12 52 5 0 6 7 3 15 -4 8 -1 15 5 15 6 0 11 5 11 11 0 5 -6 7 -12 3 -10 -6
-10 -4 0 7 6 7 12 23 12 36 0 13 4 23 9 23 5 0 8 8 7 18 -2 9 4 28 13 42 10
14 11 21 4 17 -7 -5 -13 -4 -13 2 0 5 4 11 10 13 5 2 11 15 12 31 1 15 6 27
11 27 4 0 5 5 1 11 -3 6 -1 15 7 19 10 7 10 11 0 24 -10 12 -9 17 8 28 15 9
17 15 9 25 -7 9 -7 13 1 13 7 0 10 4 7 9 -3 4 1 17 8 27 10 13 11 23 4 31 -6
8 -7 13 -1 13 5 0 10 6 11 13 9 67 23 108 36 100 6 -4 5 1 -3 10 -8 11 -9 17
-3 17 6 0 9 7 6 15 -4 8 -1 15 6 15 10 0 9 4 0 16 -11 12 -11 15 0 12 10 -2
14 7 14 30 0 17 4 32 10 32 5 0 1 7 -10 16 -10 8 -13 12 -5 8 9 -4 12 -3 8 4
-9 13 -36 9 -46 -7 -6 -10 -10 -9 -14 2 -3 9 -14 14 -24 12 -10 -2 -18 -4 -18
-5 0 -1 -10 -3 -22 -4 -12 -1 -20 1 -17 6 3 4 0 8 -5 8 -6 0 -11 -4 -11 -10 0
-5 -5 -10 -11 -10 -5 0 -7 6 -3 13 6 9 5 9 -8 0 -8 -7 -18 -10 -22 -6 -12 13
-35 11 -47 -3 -6 -8 -16 -11 -22 -7 -5 3 -7 1 -3 -5 3 -5 2 -12 -4 -14 -5 -1
-11 -22 -12 -45 -2 -24 -7 -43 -12 -43 -4 0 -6 -7 -2 -15 3 -8 1 -15 -4 -15
-6 0 -9 -3 -8 -7 1 -5 -2 -29 -6 -55 -6 -32 -12 -45 -20 -41 -6 4 -5 -1 3 -11
12 -15 12 -17 0 -14 -10 2 -13 -4 -11 -21 3 -17 0 -21 -10 -15 -7 4 -4 -3 6
-15 20 -22 20 -22 0 -15 -10 4 -16 4 -12 -1 4 -4 2 -15 -5 -23 -9 -13 -9 -14
0 -8 9 5 11 2 7 -9 -4 -9 -13 -14 -22 -10 -13 5 -13 3 -1 -12 13 -16 12 -17
-4 -4 -10 8 -16 23 -15 35 2 12 -2 20 -8 19 -6 -1 -11 5 -12 13 -1 7 -3 21 -4
29 -1 8 -5 15 -10 15 -5 0 -6 5 -3 10 3 6 1 10 -5 10 -6 0 -8 5 -5 10 3 6 1
10 -4 10 -6 0 -10 3 -9 8 1 4 -6 25 -16 47 -9 22 -16 40 -14 40 2 0 -8 15 -22
34 -13 19 -19 31 -12 27 8 -5 10 -2 6 8 -3 9 -10 14 -14 11 -5 -3 -7 3 -5 12
1 10 -4 26 -12 35 -9 9 -12 22 -7 30 4 7 4 10 -1 6 -4 -4 -15 -3 -24 2 -10 5
-23 5 -31 0 -9 -5 -19 -5 -26 1 -8 7 -14 6 -19 -1 -5 -8 -11 -7 -23 2 -13 11
-14 11 -7 -2 8 -13 7 -13 -8 -1 -11 9 -17 10 -17 2 0 -6 -5 -11 -11 -11 -5 0
-7 6 -3 13 5 9 4 9 -6 0 -9 -9 -17 -9 -26 -2 -8 7 -14 7 -19 -1 -3 -5 -11 -10
-16 -10 -6 0 -8 4 -5 8 10 16 -24 8 -40 -9z"/>
<path d="M2122 2085 c-7 -8 -13 -18 -15 -22 -1 -5 -6 -7 -11 -5 -5 2 -4 -3 3
-12 8 -10 9 -16 1 -21 -6 -3 -8 -11 -5 -16 4 -5 1 -9 -6 -9 -10 0 -10 -3 -1
-12 8 -8 6 -18 -10 -41 -12 -17 -17 -27 -10 -23 7 4 12 2 12 -3 0 -6 -4 -11
-8 -11 -8 0 -10 -7 -14 -50 -1 -11 -6 -20 -11 -20 -4 0 -5 -5 -2 -10 4 -6 0
-22 -9 -35 -10 -15 -12 -26 -6 -30 6 -4 4 -12 -5 -22 -10 -9 -13 -23 -9 -35 4
-14 2 -18 -5 -14 -7 4 -9 1 -5 -7 3 -8 0 -18 -6 -22 -8 -5 -8 -11 1 -21 8 -10
8 -14 0 -14 -6 0 -11 -9 -11 -21 0 -11 -4 -18 -9 -15 -4 3 -6 -6 -3 -21 3 -17
1 -24 -6 -19 -6 4 -8 -2 -5 -14 3 -11 1 -20 -3 -20 -5 0 -10 -12 -11 -28 -4
-54 -8 -67 -26 -80 -12 -9 -15 -18 -9 -25 6 -8 6 -21 -1 -37 -5 -14 -9 -33 -8
-42 1 -10 -2 -18 -8 -18 -5 0 -8 -9 -6 -20 2 -11 0 -22 -5 -25 -5 -3 -7 -14
-5 -24 2 -11 -3 -22 -12 -25 -12 -5 -13 -9 -3 -21 8 -9 8 -15 2 -15 -6 0 -9
-12 -7 -26 1 -14 -3 -28 -9 -30 -10 -4 -15 -23 -19 -81 -1 -11 -5 -19 -9 -16
-5 2 -8 -9 -8 -26 0 -16 -6 -31 -12 -34 -10 -3 -8 -10 5 -23 12 -13 17 -14 17
-4 0 7 3 11 6 8 5 -5 16 3 89 68 13 12 26 20 29 17 2 -3 10 5 16 17 6 12 14
19 17 17 2 -3 13 2 23 11 42 39 72 62 81 62 6 0 7 5 3 12 -5 8 -2 9 9 5 11 -4
17 -1 17 7 0 8 10 20 22 28 17 11 22 23 20 49 -2 25 0 30 8 19 8 -12 10 -10 9
10 0 38 9 82 18 89 5 3 8 16 7 29 -1 12 3 22 7 22 5 0 9 5 9 11 0 5 -6 7 -12
4 -7 -4 -6 -1 3 7 9 7 14 18 12 25 -2 6 2 15 9 19 7 4 10 4 6 -1 -4 -4 3 -16
15 -27 12 -11 16 -17 10 -13 -9 4 -11 1 -7 -9 3 -9 11 -13 17 -9 6 4 8 0 4
-10 -3 -10 -2 -17 3 -17 6 0 10 -7 10 -16 0 -8 4 -13 9 -10 5 4 8 -2 7 -11 -2
-10 6 -26 17 -35 11 -10 17 -18 13 -18 -5 0 1 -16 13 -36 12 -19 21 -42 21
-50 0 -8 4 -13 9 -10 5 4 11 2 13 -2 1 -5 16 -12 31 -16 17 -4 26 -3 23 3 -4
5 8 6 29 1 20 -4 35 -4 35 1 0 5 4 9 10 9 5 0 6 -8 3 -17 -6 -16 -5 -16 10 -5
9 8 20 12 24 9 4 -2 17 -1 28 3 13 5 26 2 38 -9 17 -15 20 -14 33 4 8 10 14
14 14 9 0 -6 13 -9 30 -6 31 4 35 19 11 38 -8 6 -11 18 -8 28 4 9 3 15 -2 12
-5 -3 -12 5 -15 19 -4 14 -11 25 -17 25 -6 0 -7 5 -4 10 3 6 1 10 -4 10 -6 0
-11 6 -11 14 0 7 -7 19 -15 26 -9 7 -14 19 -11 27 3 7 1 13 -4 13 -5 0 -16 14
-25 30 -9 17 -13 30 -10 30 3 0 -3 10 -14 22 -11 11 -18 25 -15 30 3 4 0 8 -7
8 -7 0 -10 3 -6 6 3 4 -1 13 -9 21 -8 8 -12 19 -9 24 4 5 -2 9 -12 9 -14 0
-15 2 -4 9 10 7 11 9 1 13 -24 8 -19 41 8 66 15 13 46 41 68 62 23 21 45 36
48 33 3 -4 6 1 6 10 0 8 9 19 20 22 11 3 20 13 20 21 0 8 4 13 9 10 4 -3 19 8
31 24 12 16 27 27 31 24 5 -3 9 2 9 10 0 8 9 18 20 21 11 4 18 11 15 16 -4 5
-1 9 4 9 14 0 57 43 53 53 -1 4 1 6 5 5 8 -3 32 17 89 69 21 19 18 43 -4 29
-4 -2 -14 0 -22 6 -12 8 -12 9 2 4 10 -3 20 -1 22 3 7 10 -50 9 -60 -2 -4 -4
-13 -2 -20 4 -8 7 -14 7 -19 -1 -3 -5 -11 -10 -16 -10 -6 0 -8 4 -5 9 6 9 -51
7 -61 -3 -3 -3 -12 -1 -19 5 -8 7 -14 7 -19 -1 -5 -8 -11 -7 -23 2 -13 11 -14
11 -7 -2 8 -13 7 -13 -8 -1 -11 9 -17 10 -17 2 0 -6 -5 -11 -11 -11 -5 0 -7 5
-4 10 10 16 0 12 -25 -10 -12 -11 -27 -17 -33 -13 -5 3 -7 2 -4 -4 7 -11 -46
-63 -63 -63 -5 0 -6 -7 -3 -17 4 -11 3 -14 -5 -9 -7 4 -12 2 -12 -4 0 -6 -4
-8 -10 -5 -5 3 -10 1 -10 -5 0 -6 -7 -18 -15 -26 -8 -9 -15 -13 -15 -10 0 3
-9 -3 -20 -14 -11 -11 -20 -25 -20 -32 0 -6 -3 -9 -6 -6 -3 3 -19 -7 -35 -23
-17 -16 -34 -27 -39 -24 -6 3 -7 -1 -4 -9 3 -9 2 -16 -3 -16 -5 0 -9 9 -10 20
-1 11 1 20 5 20 4 0 9 12 10 27 1 15 8 30 15 35 9 6 9 8 0 8 -7 0 -10 7 -7 15
4 8 10 13 14 10 4 -2 6 9 4 26 -2 17 0 27 6 24 5 -3 9 3 9 12 0 10 3 33 7 52
5 24 3 32 -5 27 -6 -4 -11 -3 -11 3 0 6 -7 7 -17 4 -10 -4 -14 -2 -10 4 6 9
-24 11 -58 3 -5 -1 -12 -1 -15 0 -23 8 -42 6 -47 -7 -4 -11 -8 -12 -14 -2 -9
15 -37 21 -45 8 -3 -5 -10 -9 -15 -9 -6 0 -7 5 -4 10 9 15 -8 11 -23 -5z
m-182 -685 c0 -5 -5 -10 -11 -10 -5 0 -7 5 -4 10 3 6 8 10 11 10 2 0 4 -4 4
-10z"/>
</g>
</svg>
