<?xml version="1.0" encoding="utf-8"?>
<!-- Generator: Adobe Illustrator 19.0.0, SVG Export Plug-In . SVG Version: 6.00 Build 0)  -->
<svg version="1.1" id="Layer_1" xmlns="http://www.w3.org/2000/svg" xmlns:xlink="http://www.w3.org/1999/xlink" x="0px" y="0px"
	 viewBox="0 0 500 500" style="enable-background:new 0 0 500 500;" xml:space="preserve">
<style type="text/css">
	.st0{fill:#CC071E;}
</style>
<g id="XMLID_1_">
	<path id="XMLID_2_" class="st0" d="M403.1,140.1c-5.8,2.6-10.4-0.1-17.5,14.5c-22.4,46-39.8,83.4-60.6,137.1
		c0.6-44.1,8.5-79.3,13.2-122.3c0.9-7.9,2.1-18.8,1.9-27.1c-0.1-6.3-6.4-7.1-19.2-0.9c-7.1,3.5-15.6,3.2-18.8,11.6
		c-13.8,35.7-45.7,135.1-60.5,191.4c-3.6,13.5,9.8,15.8,13.8,1.9c9.7-33.5,32-107.6,45.2-145.8c-1.3,35-10.8,90.2-6.4,119.2
		c1.4,9.1,9.9,13.1,14.3,20.8c3.1,5.5,8.1,6,10.8-1.5c13-35.3,38.2-97.7,62.5-147.6c-4.8,22-23.1,115.1-28.2,152.2
		c-1,7.5,8.1,7.6,16.2,18.8c1.8,2.5,8.8,5.3,10.1-1.2c4.3-22.3,32.6-166.9,43.6-212.8C426.7,136.2,425.9,130,403.1,140.1z"/>
	<path id="XMLID_3_" class="st0" d="M218.3,245.2c9.7-14.5,12.5-11.6,14.9-16c2.9-5.5,1-10.7-9.4-9.5c0,0-3.9,0.3-11.2,1.1
		c11.5-29.7,21.6-54.8,28.9-74c2.5-6.5,2.8-11.2-1.2-12.2c-4.3-1-16.8,5.7-24.4,7c-2.4,0.4-4.7,3-5.6,4.8
		c-12.3,28.2-23.3,55-32.8,79.5c-12.2,2.1-26.4,4.8-42.3,8.4c11.4-29.3,22.9-58.2,34.2-85.9c5.5-13.7-9-15-14.7-1.1
		c-7.3,18-21.1,51.7-36.3,91c-11.2,2.7-23.1,5.9-35.5,9.5c-9,2.6-9.4,5-5.5,10.4c2.1,3,6.6,2.7,8.6,4.9c5.3,5.6,8.4,12.2,17.9,13.2
		c-8.4,22.4-16.8,45.6-24.4,67.9c-4.8,14,8.8,16.9,14,2c8.4-23.9,17.3-48,26.4-72.1c7.6-1.8,26-5.7,43-9.4
		c-13.5,36.9-22.3,65-25.7,78.6c-0.6,2.6,0.4,4.1,1,5.2c4.5,6.6,8.9,6.9,14.7,15.1c1.6,2.2,6.9,3.4,8.7-2.1
		c12.5-37.7,25.3-73.1,37.3-104.8C203.8,255.6,212.8,253.4,218.3,245.2z"/>
	<path id="XMLID_4_" class="st0" d="M227.5,302.8c-0.9,0.8-1.8,1.6-2.7,2.5c-1.1-3.2-2.1-6.5-3.1-9.6c2.9-3.6,5.8-7.2,8.2-10.9
		c10-15.6-9.8-24.6-18.3-14.5c-4.6,5.4-3.4,10.7-2.2,15.3c0.4,1.4,1,3.4,1.7,5.8c-2.4,2.5-5.4,5.6-9.2,10.1
		c-9.7,11.2-7.1,25.8,3.3,29.1c6.3,2,12.2-0.9,17.3-5.4c0.3,0.7,0.5,1.3,0.7,1.9c2.7,6.8,11.1,4.7,7.9-3.5c-0.6-1.4-1.2-3.3-2-5.6
		c1.6-2.1,3.2-4.2,4.5-6.2C239.7,302.8,233.7,297.4,227.5,302.8z M220.9,281.4c-0.9,1.1-1.8,2-2.7,2.9c-0.2-0.8-0.4-1.5-0.6-2.1
		C214.7,271.3,227.2,274.2,220.9,281.4z M214.1,314.6c-3.8,2.3-6.8-0.2-1.7-7.2c0.9-1.2,1.7-2.3,2.6-3.4c0.9,2.6,1.8,5.4,2.7,8
		C216.5,312.9,215.3,313.8,214.1,314.6z"/>
</g>
</svg>
